<?xml version="1.0" encoding="UTF-8" standalone="no"?>
<svg
   xmlns:dc="http://purl.org/dc/elements/1.1/"
   xmlns:cc="http://creativecommons.org/ns#"
   xmlns:rdf="http://www.w3.org/1999/02/22-rdf-syntax-ns#"
   xmlns:svg="http://www.w3.org/2000/svg"
   xmlns="http://www.w3.org/2000/svg"
   viewBox="0 0 331.67999 40.360001"
   height="40.360001"
   width="331.67999"
   xml:space="preserve"
   id="svg2"
   version="1.1"><metadata
     id="metadata8"><rdf:RDF><cc:Work
         rdf:about=""><dc:format>image/svg+xml</dc:format><dc:type
           rdf:resource="http://purl.org/dc/dcmitype/StillImage" /></cc:Work></rdf:RDF></metadata><defs
     id="defs6" /><g
     transform="matrix(1.3333333,0,0,-1.3333333,0,40.36)"
     id="g10"><g
       transform="scale(0.1)"
       id="g12"><path
         id="path14"
         style="fill:#ffffff;fill-opacity:1;fill-rule:nonzero;stroke:none"
         d="M 579.34,38.9297 534.039,115.426 511.852,96.5273 v -25.496 l 23.097,-8.1055 V 38.9297 h -96.297 v 21.3008 l 28.496,10.4961 V 236.633 l -32.699,11.086 v 26.699 h 77.403 V 131.93 l 45.886,42.3 -19.187,7.813 v 21.289 h 88.187 v -24.305 l -37.5,-17.394 -29.398,-24.899 44.101,-57.8902 25.801,-18.9063 V 38.9297 H 579.34 v 0" /><path
         id="path16"
         style="fill:#ffffff;fill-opacity:1;fill-rule:nonzero;stroke:none"
         d="m 755.141,146.629 -6.59,26.398 c -15,-3.894 -26.11,-16.785 -27.61,-18.597 V 70.7266 L 752.738,60.543 V 38.9297 H 647.75 v 21.3008 l 28.5,10.1953 v 95.1012 l -32.699,10.801 v 26.699 h 70.199 l 1.793,-23.398 c 0,0 20.098,27.601 54.297,27.601 7.203,0 19.199,-1.503 19.199,-1.503 v -59.098 h -33.898 v 0" /><path
         id="path18"
         style="fill:#ffffff;fill-opacity:1;fill-rule:nonzero;stroke:none"
         d="m 854.742,115.141 c 0,-15.6137 4.199,-45.0004 47.996,-45.0004 22.5,0 47.7,6.6133 47.7,6.6133 l 6.605,-30.625 c 0,0 -26.105,-10.8008 -61.203,-10.8008 -75.891,0 -87.598,54.3086 -87.598,83.6989 0,51.606 23.406,88.504 82.196,88.504 74.402,0 72.605,-58.504 72.605,-92.39 H 854.742 Z m 32.699,65.386 c -24.3,0 -30.3,-17.996 -32.699,-37.203 h 60.899 c 0,12.606 -1.801,37.203 -28.2,37.203 v 0" /><path
         id="path20"
         style="fill:#ffffff;fill-opacity:1;fill-rule:nonzero;stroke:none"
         d="m 1114.54,38.9297 -1.8,23.9961 c 0,0 -14.7,-27.5977 -50.1,-27.5977 -33.6,0 -53.4,17.1094 -56.1,48.6133 -0.6,6.2969 -0.3,10.8008 -0.3,12.5859 v 68.9997 l -32.099,10.801 v 26.699 h 76.799 v -102.3 c 0,-20.3989 2.4,-30.8989 25.2,-30.8989 23.4,0 31.8,16.211 31.8,39.0079 v 56.691 l -32.4,10.801 v 26.699 h 76.79 V 70.4258 l 28.8,-10.1953 V 38.9297 h -66.59 v 0" /><path
         id="path22"
         style="fill:#ffffff;fill-opacity:1;fill-rule:nonzero;stroke:none"
         d="m 1334.43,38.9297 h -134.39 v 32.6992 l 90.89,102.9141 h -49.49 l -12,-25.516 h -29.1 v 54.305 h 136.8 v -37.195 l -88.8,-98.4065 h 46.19 l 18.31,27.0117 h 30.3 l -8.71,-55.8125 v 0" /><path
         id="path24"
         style="fill:#ffffff;fill-opacity:1;fill-rule:nonzero;stroke:none"
         d="m 1623.03,169.73 -44.1,-130.8003 h -54.59 l -24.3,110.9963 -28.51,-110.9963 h -54.29 l -41.7,130.8003 -19.8,6.903 v 26.394 h 89.4 v -26.394 l -23.11,-6.602 20.7,-91.8044 h 7.21 l 29.09,124.8004 h 46.2 l 28.21,-124.8004 h 7.19 l 21,91.5034 -21.9,6.903 v 26.394 h 83.7 v -26.394 l -20.4,-6.903 v 0" /><path
         id="path26"
         style="fill:#ffffff;fill-opacity:1;fill-rule:nonzero;stroke:none"
         d="m 1699.53,115.141 c 0,-15.6137 4.2,-45.0004 48,-45.0004 22.5,0 47.7,6.6133 47.7,6.6133 l 6.61,-30.625 c 0,0 -26.12,-10.8008 -61.21,-10.8008 -75.89,0 -87.6,54.3086 -87.6,83.6989 0,51.606 23.41,88.504 82.2,88.504 74.4,0 72.6,-58.504 72.6,-92.39 h -108.3 z m 32.7,65.386 c -24.3,0 -30.3,-17.996 -32.7,-37.203 h 60.9 c 0,12.606 -1.8,37.203 -28.2,37.203 v 0" /><path
         id="path28"
         style="fill:#ffffff;fill-opacity:1;fill-rule:nonzero;stroke:none"
         d="m 1934.43,146.629 -6.6,26.398 c -15,-3.894 -26.09,-16.785 -27.6,-18.597 V 70.7266 l 31.8,-10.1836 V 38.9297 h -105 v 21.3008 l 28.5,10.1953 v 95.1012 l -32.7,10.801 v 26.699 h 70.2 l 1.79,-23.398 c 0,0 20.11,27.601 54.31,27.601 7.2,0 19.2,-1.503 19.2,-1.503 v -59.098 h -33.9 v 0" /><path
         id="path30"
         style="fill:#ffffff;fill-opacity:1;fill-rule:nonzero;stroke:none"
         d="m 2110.82,38.9297 -45.29,76.4963 -22.21,-18.8987 v -25.496 l 23.11,-8.1055 V 38.9297 h -96.3 v 21.3008 l 28.5,10.4961 V 236.633 l -32.7,11.086 v 26.699 h 77.39 V 131.93 l 45.9,42.3 -19.2,7.813 v 21.289 h 88.2 v -24.305 l -37.5,-17.394 -29.39,-24.899 44.09,-57.8902 25.8,-18.9063 V 38.9297 h -50.4 v 0" /><path
         id="path32"
         style="fill:#ffffff;fill-opacity:1;fill-rule:nonzero;stroke:none"
         d="m 2218.83,115.141 c 0,-15.6137 4.2,-45.0004 47.99,-45.0004 22.5,0 47.7,6.6133 47.7,6.6133 l 6.59,-30.625 c 0,0 -26.09,-10.8008 -61.19,-10.8008 -75.9,0 -87.6,54.3086 -87.6,83.6989 0,51.606 23.4,88.504 82.2,88.504 74.41,0 72.6,-58.504 72.6,-92.39 h -108.29 z m 32.69,65.386 c -24.29,0 -30.29,-17.996 -32.69,-37.203 h 60.9 c 0,12.606 -1.8,37.203 -28.21,37.203 v 0" /><path
         id="path34"
         style="fill:#ffffff;fill-opacity:1;fill-rule:nonzero;stroke:none"
         d="m 2453.71,146.629 -6.59,26.398 c -15,-3.894 -26.1,-16.785 -27.61,-18.597 V 70.7266 L 2451.32,60.543 V 38.9297 h -104.99 v 21.3008 l 28.49,10.1953 v 95.1012 l -32.7,10.801 v 26.699 h 70.2 l 1.8,-23.398 c 0,0 20.1,27.601 54.3,27.601 7.21,0 19.2,-1.503 19.2,-1.503 v -59.098 h -33.91 v 0" /><path
         id="path36"
         style="fill:#ffffff;fill-opacity:1;fill-rule:nonzero;stroke:none"
         d="M 295.723,63.9219 224.238,-0.00390625 0,238.82 71.4805,302.738 295.723,63.9219 v 0" /><path
         id="path38"
         style="fill:#ffffff;fill-opacity:1;fill-rule:nonzero;stroke:none"
         d="M 136.98,69.7617 71.4805,-0.00390625 0,63.9219 65.4961,133.676 136.98,69.7617 v 0" /><path
         id="path40"
         style="fill:#ffffff;fill-opacity:1;fill-rule:nonzero;stroke:none"
         d="m 295.723,238.82 -65.504,-69.761 -71.481,63.921 65.5,69.758 71.485,-63.918 v 0" /></g></g></svg>