<svg id="Capa_1" data-name="Capa 1" xmlns="http://www.w3.org/2000/svg" xmlns:xlink="http://www.w3.org/1999/xlink" viewBox="0 0 518.81 69.45"><defs><style>.cls-1{fill:#edf0f2;}.cls-2{fill:url(#Nueva_muestra_de_degradado_2);}.cls-3{fill:url(#Nueva_muestra_de_degradado_2-2);}.cls-4{fill:url(#Nueva_muestra_de_degradado_2-3);}.cls-5{fill:url(#Degradado_sin_nombre_24);}.cls-6{fill:url(#Nueva_muestra_de_degradado_2-4);}</style><linearGradient id="Nueva_muestra_de_degradado_2" x1="333.49" y1="41.28" x2="490.82" y2="41.28" gradientUnits="userSpaceOnUse"><stop offset="0.01" stop-color="#e62d36"/><stop offset="0.24" stop-color="#e12a36"/><stop offset="0.52" stop-color="#d32335"/><stop offset="0.82" stop-color="#bb1734"/></linearGradient><linearGradient id="Nueva_muestra_de_degradado_2-2" x1="334.32" y1="36.21" x2="491.65" y2="36.21" xlink:href="#Nueva_muestra_de_degradado_2"/><linearGradient id="Nueva_muestra_de_degradado_2-3" x1="334.32" y1="40.39" x2="491.65" y2="40.39" xlink:href="#Nueva_muestra_de_degradado_2"/><linearGradient id="Degradado_sin_nombre_24" x1="2.15" y1="34.87" x2="143.12" y2="34.87" gradientUnits="userSpaceOnUse"><stop offset="0.04" stop-color="#e62d36"/><stop offset="0.31" stop-color="#e12a36"/><stop offset="0.65" stop-color="#d32335"/><stop offset="1" stop-color="#bb1734"/></linearGradient><linearGradient id="Nueva_muestra_de_degradado_2-4" x1="335.33" y1="34.72" x2="488.13" y2="34.72" xlink:href="#Nueva_muestra_de_degradado_2"/></defs><title>LogoWhite_ SVG</title><path class="cls-1" d="M173.11,60.35,162.39,10a.93.93,0,0,1,.9-1.12h8.47a.93.93,0,0,1,.91.75l7.48,38.28a.92.92,0,0,0,1.81,0L190,9.6a.93.93,0,0,1,.91-.73h13.56a.93.93,0,0,1,.91.74l7.87,38.11a.92.92,0,0,0,1.81,0l7.47-38.09a.92.92,0,0,1,.91-.75h8.46a.92.92,0,0,1,.9,1.12L222,60.35a.92.92,0,0,1-.9.73H207.44a.93.93,0,0,1-.91-.74l-7.91-40.12a.92.92,0,0,0-1.81,0l-8.25,40.12a.93.93,0,0,1-.9.74H174A.92.92,0,0,1,173.11,60.35Z"/><path class="cls-1" d="M254.81,60.78a19.51,19.51,0,0,1-14.43-6,19.73,19.73,0,0,1-5.93-14.36A20.37,20.37,0,0,1,254.81,20a19.5,19.5,0,0,1,12.94,4.73,19.9,19.9,0,0,1,7,11.82,16.87,16.87,0,0,1,.22,6.72A.91.91,0,0,1,274,44H245.27a.92.92,0,0,0-.88,1.2A9.4,9.4,0,0,0,247.8,50a11.38,11.38,0,0,0,7,2.17,13.54,13.54,0,0,0,9.77-3.73.94.94,0,0,1,.89-.24l6.86,1.87a.93.93,0,0,1,.55,1.37A17.49,17.49,0,0,1,265.81,58,23.13,23.13,0,0,1,254.81,60.78Zm-9.49-24.16h18.76a.92.92,0,0,0,.88-1.23,10.58,10.58,0,0,0-10.22-6.83,10.79,10.79,0,0,0-7,2.31,10.43,10.43,0,0,0-3.32,4.52A.92.92,0,0,0,245.32,36.62Z"/><path class="cls-1" d="M303.78,61.68a15.73,15.73,0,0,1-10.29-3.47.92.92,0,0,0-1.49.72v1.23a.93.93,0,0,1-.93.92h-7.85a.92.92,0,0,1-.92-.92V9.79a.92.92,0,0,1,.92-.92h7.85a.93.93,0,0,1,.93.92v14a.92.92,0,0,0,1.52.7,15.53,15.53,0,0,1,10.26-3.59,18.28,18.28,0,0,1,14,5.86,20.28,20.28,0,0,1,5.67,14.58,20.34,20.34,0,0,1-5.56,14.39A18.37,18.37,0,0,1,303.78,61.68Zm-9-12.23a11.5,11.5,0,0,0,19.61-8.13A11.29,11.29,0,0,0,311,33.15a11.21,11.21,0,0,0-16.22,0,11.4,11.4,0,0,0,0,16.3Z"/><path class="cls-2" d="M399.68,61.68a21.35,21.35,0,0,1-4.85-.56,18.2,18.2,0,0,1-4.73-1.87,9.85,9.85,0,0,1-3.81-3.87,12.18,12.18,0,0,1-1.45-6.08q-.07-6.19,4.18-9.21t11.78-3L411.52,37a.93.93,0,0,0,.92-.93V34.9a4.77,4.77,0,0,0-2.39-4.4,12.23,12.23,0,0,0-6.27-1.42q-6.87,0-8.53,4.23a.91.91,0,0,1-.84.55l-7.62.06a.92.92,0,0,1-.93-1A11.24,11.24,0,0,1,391,24.46a21.38,21.38,0,0,1,12.53-3.58,22.2,22.2,0,0,1,12.75,3.58q5.29,3.59,5.3,9.32V60.16a.92.92,0,0,1-.92.92h-7.33a.92.92,0,0,1-.92-.92V58.42a.92.92,0,0,0-1.51-.72A18.08,18.08,0,0,1,407.48,60,16.71,16.71,0,0,1,399.68,61.68Zm.82-8a13.18,13.18,0,0,0,8.21-2.87A8.72,8.72,0,0,0,412.37,45a.92.92,0,0,0-.92-1h-8.86q-4.17,0-6.26,1.56a4.13,4.13,0,0,0-1.79,4Q395,53.71,400.5,53.7Z"/><path class="cls-3" d="M455,59.11a.93.93,0,0,1-.69.89q-8.94,2.39-14.9-.86-6.19-3.35-6.19-11.93l.07-17.27a.93.93,0,0,0-.93-.93h-5.23a.93.93,0,0,1-.93-.92V21.58a.93.93,0,0,1,.93-.92h5.24a.92.92,0,0,0,.92-.92V12.33a.92.92,0,0,1,.92-.92h7.77a.92.92,0,0,1,.92.93l-.05,7.39a.92.92,0,0,0,.92.93h9.93a.92.92,0,0,1,.92.92v6.51a.92.92,0,0,1-.92.92h-9.94a.93.93,0,0,0-.93.92l-.07,17.21a4.15,4.15,0,0,0,3,4.17c1.79.68,4.49.52,8.08-.47a.92.92,0,0,1,1.17.88Z"/><path class="cls-4" d="M479.49,60.78a19.53,19.53,0,0,1-14.43-6,19.73,19.73,0,0,1-5.93-14.36A20.38,20.38,0,0,1,479.49,20a19.53,19.53,0,0,1,12.94,4.73,19.9,19.9,0,0,1,7,11.82,16.69,16.69,0,0,1,.22,6.72.89.89,0,0,1-.9.74H470a.93.93,0,0,0-.89,1.2A9.45,9.45,0,0,0,472.48,50a11.38,11.38,0,0,0,7,2.17,13.53,13.53,0,0,0,9.77-3.73.94.94,0,0,1,.89-.24L497,50.11a.92.92,0,0,1,.55,1.37A17.49,17.49,0,0,1,490.49,58,23.13,23.13,0,0,1,479.49,60.78ZM470,36.62h18.76a.92.92,0,0,0,.88-1.23,10.36,10.36,0,0,0-3.29-4.51,10.62,10.62,0,0,0-6.93-2.32,10.8,10.8,0,0,0-7,2.32,10.43,10.43,0,0,0-3.32,4.51A.92.92,0,0,0,470,36.62Z"/><path class="cls-1" d="M514.83,58.87a6.29,6.29,0,1,1,1.83-4.43A6,6,0,0,1,514.83,58.87Z"/><path class="cls-5" d="M143.12,34.31V60.08a.76.76,0,0,1-.77.77H124.81a.77.77,0,0,1-.77-.76c0-3.52-.13-18.33,0-25.52.11-4.54-2.64-6.55-6.6-6.77-.41,0-.82,0-1.22,0H29a14.08,14.08,0,0,0-2.26.12,10.35,10.35,0,0,0-2.4.69,6.83,6.83,0,0,0-3,4,.09.09,0,0,0,0,.05,10.44,10.44,0,0,0-.13,1.74c0,7,0,22.06,0,25.63a.76.76,0,0,1-.77.77H2.92a.76.76,0,0,1-.77-.77V34.31a24.67,24.67,0,0,1,.4-4.49h0A25.51,25.51,0,0,1,24.71,9.06a22.48,22.48,0,0,1,2.85-.17H117.7a24.17,24.17,0,0,1,3.73.28l.29,0a25.54,25.54,0,0,1,21.32,23C143.09,32.94,143.12,33.62,143.12,34.31Z"/><path class="cls-6" d="M378.14,57.27a.86.86,0,0,1-.49.78,40.51,40.51,0,0,1-8.14,2.71,49.27,49.27,0,0,1-10.82,1.06,31.53,31.53,0,0,1-11.43-2,26.31,26.31,0,0,1-8.89-5.61,25.68,25.68,0,0,1-5.79-8.6,28.48,28.48,0,0,1-2.07-11,27.83,27.83,0,0,1,2.15-11.18,24.71,24.71,0,0,1,5.9-8.49,26.36,26.36,0,0,1,8.84-5.39,31.63,31.63,0,0,1,11.08-1.89A34.29,34.29,0,0,1,369.8,9.41a24,24,0,0,1,7.58,4.1.86.86,0,0,1,.1,1.24l-5.14,5.55a.84.84,0,0,1-1.2.05,16.57,16.57,0,0,0-4.91-3.11,19.08,19.08,0,0,0-7.68-1.53,18.19,18.19,0,0,0-7.39,1.46,16.55,16.55,0,0,0-5.65,4,18,18,0,0,0-3.6,6,21.12,21.12,0,0,0-1.28,7.43,21.86,21.86,0,0,0,1.28,7.61,17.52,17.52,0,0,0,3.64,6,16.4,16.4,0,0,0,5.75,4A19.67,19.67,0,0,0,359,53.59,27.15,27.15,0,0,0,368.72,52a.84.84,0,0,0,.54-.8V39.51a.85.85,0,0,0-.86-.85h-9.14a.86.86,0,0,1-.86-.85V31.93a.86.86,0,0,1,.86-.85h18a.85.85,0,0,1,.85.85Z"/></svg>